<?xml version="1.0" encoding="UTF-8"?>
<svg id="uuid-fa89b87b-9e6b-4b9f-be92-1fba63ffef0e" data-name="Layer 2" xmlns="http://www.w3.org/2000/svg" viewBox="0 0 370.53 71.39">
  <defs>
    <style>
      .uuid-c2a2b563-6c0d-4d70-a232-3f5fc1ee36b0 {
        fill: #334155;
        opacity: .6;
      }

      .uuid-c2a2b563-6c0d-4d70-a232-3f5fc1ee36b0, .uuid-597303c5-584d-4790-bcff-28f40e1a94ff, .uuid-8a60a009-993b-4780-9040-b1c220060e46 {
        fill-rule: evenodd;
      }

      .uuid-597303c5-584d-4790-bcff-28f40e1a94ff {
        fill: #1e293b;
        opacity: .8;
      }

      .uuid-8a60a009-993b-4780-9040-b1c220060e46 {
        fill: #0f172a;
      }
    </style>
  </defs>
  <g id="uuid-fc373327-c5ff-4227-91ce-4190b41f9e0c" data-name="Layer 1">
    <g>
      <g>
        <path class="uuid-c2a2b563-6c0d-4d70-a232-3f5fc1ee36b0" d="M0,47.19l8.06-4.39,2.38,1.3-2.81,1.53,1.87,1.02,2.81-1.53,32.09,17.49,36.35-19.81,3.8,2.07-1.9,1.04,1.87,1.02,1.9-1.04,2.38,1.3-44.4,24.2-2.38-1.3,1.9-1.04-1.87-1.02-1.9,1.04L4.25,49.51l1.9-1.04-1.87-1.02-1.9,1.04-2.38-1.3H0Zm47.27,20.05l-1.87-1.02,4.11-2.24,1.87,1.02-4.11,2.24h0Zm7.45-4.06l-1.87-1.02,4.11-2.24,1.87,1.02-4.11,2.24h0Zm7.45-4.06l-1.87-1.02,4.11-2.24,1.87,1.02-4.11,2.24h0Zm7.45-4.06l-1.87-1.02,4.11-2.24,1.87,1.02-4.11,2.24h0Zm7.45-4.06l-1.87-1.02,4.11-2.24,1.87,1.02-4.11,2.24h0Z"/>
        <path class="uuid-597303c5-584d-4790-bcff-28f40e1a94ff" d="M0,35.7l8.06-4.39,2.38,1.3-2.81,1.53,1.87,1.02,2.81-1.53,32.09,17.49,36.35-19.81,3.8,2.07-1.9,1.04,1.87,1.02,1.9-1.04,2.38,1.3-44.4,24.2-2.38-1.3,1.9-1.04-1.87-1.02-1.9,1.04L4.25,38.01l1.9-1.04-1.87-1.02-1.9,1.04-2.38-1.3H0Zm47.27,20.05l-1.87-1.02,4.11-2.24,1.87,1.02-4.11,2.24h0Zm7.45-4.06l-1.87-1.02,4.11-2.24,1.87,1.02-4.11,2.24h0Zm7.45-4.06l-1.87-1.02,4.11-2.24,1.87,1.02-4.11,2.24h0Zm7.45-4.06l-1.87-1.02,4.11-2.24,1.87,1.02-4.11,2.24h0Zm7.45-4.06l-1.87-1.02,4.11-2.24,1.87,1.02-4.11,2.24h0Z"/>
        <path class="uuid-8a60a009-993b-4780-9040-b1c220060e46" d="M0,24.2L44.4,0l2.38,1.3-1.9,1.04,1.87,1.02,1.9-1.04,35.9,19.57-1.9,1.04,1.87,1.02,1.9-1.04,2.38,1.3-44.4,24.2-2.38-1.3,1.9-1.04-1.87-1.02-1.9,1.04L4.25,26.52l1.9-1.04-1.87-1.02-1.9,1.04-2.38-1.3H0Zm9.5-.54l-1.87-1.02,4.11-2.24,1.87,1.02-4.11,2.24h0Zm7.45-4.06l-1.87-1.02,4.11-2.24,1.87,1.02-4.11,2.24h0Zm7.45-4.06l-1.87-1.02,4.11-2.24,1.87,1.02-4.11,2.24h0Zm7.45-4.06l-1.87-1.02,4.11-2.24,1.87,1.02-4.11,2.24h0Zm7.45-4.06l-1.87-1.02,4.11-2.24,1.87,1.02-4.11,2.24h0Zm7.96,36.84l-1.87-1.02,4.11-2.24,1.87,1.02-4.11,2.24h0Zm7.45-4.06l-1.87-1.02,4.11-2.24,1.87,1.02-4.11,2.24h0Zm7.45-4.06l-1.87-1.02,4.11-2.24,1.87,1.02-4.11,2.24h0Zm7.45-4.06l-1.87-1.02,4.11-2.24,1.87,1.02-4.11,2.24h0Zm7.45-4.06l-1.87-1.02,4.11-2.24,1.87,1.02-4.11,2.24h0Z"/>
      </g>
      <path class="uuid-8a60a009-993b-4780-9040-b1c220060e46" d="M247.58,41.66v-.08c0-1.28-.2-2.38-.6-3.3-.4-.92-1.01-1.72-1.8-2.4-.79-.68-1.77-1.27-2.93-1.75-1.15-.49-2.48-.92-3.96-1.31-1.25-.33-2.29-.63-3.12-.88-.82-.25-1.47-.51-1.95-.79-.47-.28-.8-.59-.98-.94-.18-.35-.27-.76-.27-1.23v-.08c0-.72,.31-1.33,.94-1.81,.63-.49,1.56-.73,2.82-.73s2.5,.26,3.75,.77c1.25,.51,2.53,1.22,3.84,2.11l3.34-4.84c-1.5-1.2-3.15-2.11-4.94-2.75-1.79-.64-3.76-.96-5.9-.96-1.5,0-2.88,.21-4.12,.63-1.24,.42-2.32,1.02-3.22,1.79-.9,.78-1.59,1.7-2.09,2.77-.49,1.07-.74,2.27-.74,3.61v.08c0,1.45,.23,2.66,.69,3.63,.46,.97,1.11,1.79,1.95,2.44,.83,.65,1.86,1.2,3.05,1.65,1.2,.45,2.54,.85,4.02,1.21,1.22,.31,2.23,.6,2.99,.88,.76,.28,1.36,.56,1.8,.83,.43,.28,.72,.58,.88,.9,.15,.32,.23,.69,.23,1.11v.08c0,.86-.37,1.54-1.11,2.02s-1.77,.73-3.11,.73c-1.67,0-3.21-.32-4.61-.96-1.4-.64-2.77-1.5-4.11-2.59l-3.8,4.55c1.75,1.59,3.7,2.76,5.84,3.53,2.14,.76,4.32,1.15,6.55,1.15,1.59,0,3.03-.2,4.33-.61,1.3-.4,2.43-.99,3.37-1.75,.94-.76,1.67-1.71,2.2-2.84,.52-1.13,.79-2.41,.79-3.86h0Zm-113.68-14.27v-5.8h-22.24v29.2h6.43v-11.31h13.93v-5.8h-13.93v-6.3h15.81Zm11.85,23.41V21.6h-6.42v29.2h6.42Zm28.29,0v-5.8h-14.56V21.6h-6.42v29.2h20.99Zm34.04,0V21.6h-6.93l-7.68,12.35-7.68-12.35h-6.93v29.2h6.34V31.86l8.14,12.35h.17l8.22-12.47v19.07h6.34Zm67.2-23.78v-5.92h-24.2v5.92h8.89v23.28h6.42V27.02h8.89Zm33.38,23.28l-12.52-29.41h-5.92l-12.52,29.41h6.55l2.67-6.55h12.35l2.67,6.55h6.72Zm-11.68-12.22h-7.76l3.88-9.47,3.88,9.47h0Zm41.85,7.51l-4.09-4.13c-1.14,1.06-2.29,1.89-3.44,2.5-1.15,.61-2.57,.92-4.23,.92-1.25,0-2.4-.24-3.44-.73-1.04-.49-1.93-1.15-2.67-1.98-.74-.83-1.31-1.81-1.73-2.92-.42-1.11-.63-2.29-.63-3.55v-.08c0-1.25,.21-2.43,.63-3.53,.42-1.1,1-2.07,1.75-2.9,.75-.83,1.65-1.49,2.69-1.96,1.04-.47,2.18-.71,3.4-.71,1.47,0,2.8,.29,3.98,.88,1.18,.58,2.34,1.39,3.48,2.42l4.09-4.71c-.67-.67-1.39-1.28-2.17-1.84-.78-.56-1.63-1.03-2.54-1.42-.92-.39-1.94-.7-3.07-.92-1.13-.22-2.37-.33-3.73-.33-2.25,0-4.31,.4-6.17,1.19-1.86,.79-3.46,1.88-4.8,3.25-1.34,1.38-2.38,2.98-3.13,4.8-.75,1.82-1.13,3.78-1.13,5.86v.08c0,2.09,.38,4.05,1.13,5.88,.75,1.84,1.79,3.43,3.13,4.78,1.34,1.35,2.92,2.41,4.76,3.19,1.84,.78,3.82,1.17,5.97,1.17,1.42,0,2.7-.12,3.84-.35,1.14-.24,2.19-.58,3.15-1.04,.96-.46,1.84-1.01,2.65-1.65,.81-.64,1.59-1.36,2.34-2.17h0Zm31.71,4.71l-12.43-16.81,11.89-12.39h-7.76l-11.85,12.77v-12.77h-6.43v29.2h6.43v-8.93l3.38-3.5,9.05,12.43h7.72Z"/>
    </g>
  </g>
</svg>